<svg width="326" height="326" viewBox="0 0 326 326" fill="none" xmlns="http://www.w3.org/2000/svg">
<g opacity="0.7">
<path fill-rule="evenodd" clip-rule="evenodd" d="M274.406 184.119C276.569 184.119 278.321 185.872 278.321 188.035V274.488V278.403H274.406H188.12C185.957 278.403 184.204 276.65 184.204 274.488C184.204 272.326 185.957 270.573 188.12 270.573H270.491V188.035C270.491 185.872 272.244 184.119 274.406 184.119Z" fill="white"/>
<path fill-rule="evenodd" clip-rule="evenodd" d="M51.0574 141.344C48.8951 141.344 47.1421 139.591 47.1421 137.429L47.1421 50.9756L47.1421 47.0603L51.0574 47.0603L137.344 47.0603C139.506 47.0603 141.259 48.8132 141.259 50.9756C141.259 53.138 139.506 54.891 137.344 54.891L54.9728 54.891L54.9728 137.429C54.9728 139.591 53.2198 141.344 51.0574 141.344Z" fill="white"/>
<path d="M181.318 150.282C180.46 150.282 179.647 150.474 178.918 150.819C178.336 148.326 176.095 146.464 173.428 146.464C172.57 146.464 171.757 146.656 171.028 147.001C170.446 144.508 168.205 142.646 165.538 142.646C164.737 142.646 163.975 142.814 163.285 143.116V139.484C163.285 136.376 160.756 133.848 157.648 133.848C154.54 133.848 152.012 136.376 152.012 139.484V161.706L146.844 157.463L146.747 157.39C145.402 156.438 143.715 156.131 142.12 156.548C140.525 156.965 139.205 158.058 138.497 159.547C137.486 161.674 137.916 164.18 139.559 165.847C140.418 167.106 147.114 176.943 152.667 186.049C154.75 189.466 158.642 191.588 162.823 191.588H174.871C181.534 191.588 186.955 186.167 186.955 179.504V155.918C186.955 152.81 184.426 150.282 181.318 150.282ZM183.572 179.504C183.572 184.302 179.669 188.205 174.871 188.205H162.823C159.814 188.205 157.029 186.704 155.555 184.288C149.593 174.51 142.33 163.906 142.257 163.8L142.155 163.651L142.025 163.528C141.334 162.874 141.145 161.858 141.553 160.999C141.831 160.414 142.349 159.985 142.976 159.821C143.159 159.773 143.346 159.75 143.531 159.75C143.962 159.75 144.386 159.877 144.75 160.122L155.395 168.86V139.484C155.395 138.242 156.406 137.231 157.648 137.231C158.891 137.231 159.901 138.242 159.901 139.484V161.072H163.285V148.283C163.285 147.04 164.296 146.029 165.538 146.029C166.781 146.029 167.791 147.04 167.791 148.283V161.072H171.175V152.101C171.175 150.858 172.186 149.847 173.428 149.847C174.67 149.847 175.681 150.858 175.681 152.101V161.072H179.065V155.918C179.065 154.676 180.076 153.665 181.318 153.665C182.56 153.665 183.571 154.676 183.571 155.918L183.572 179.504Z" fill="white"/>
</g>
</svg>
