<svg width="15" height="15" viewBox="0 0 15 15" fill="none" xmlns="http://www.w3.org/2000/svg">
<path d="M13.4662 4.96364C13.2904 4.78788 13.052 4.68915 12.8034 4.68915C12.5548 4.68915 12.3164 4.78788 12.1406 4.96364L7.49998 9.60426L2.85936 4.96364C2.68255 4.79286 2.44573 4.69837 2.19992 4.70051C1.95411 4.70264 1.71897 4.80124 1.54515 4.97506C1.37133 5.14888 1.27274 5.38401 1.2706 5.62982C1.26847 5.87563 1.36296 6.11245 1.53373 6.28926L6.83717 11.5927C7.01298 11.7685 7.25139 11.8672 7.49998 11.8672C7.74858 11.8672 7.98699 11.7685 8.1628 11.5927L13.4662 6.28926C13.642 6.11346 13.7407 5.87504 13.7407 5.62645C13.7407 5.37786 13.642 5.13945 13.4662 4.96364Z" fill="black"/>
</svg>
