<svg width="112" height="98" viewBox="0 0 112 98" fill="none" xmlns="http://www.w3.org/2000/svg">
<path d="M67.5146 22.0317C67.5146 16.017 69.6221 10.9798 73.837 6.91989C78.2025 2.86001 83.5465 0.830078 89.8689 0.830078C95.8903 0.830078 101.008 3.16075 105.223 7.82209C109.438 12.4834 111.546 18.2725 111.546 25.1893C111.546 30.4521 110.342 36.166 107.933 42.331C105.524 48.496 102.363 54.7362 98.4494 61.0516C94.686 67.367 90.3958 73.6823 85.5787 79.9977C80.7616 86.1627 75.8692 91.9518 70.9016 97.3649L64.805 92.1773C71.579 84.3583 77.1488 76.3889 81.5143 68.2691C86.0303 60.1494 88.8152 52.1048 89.8689 44.1354C83.697 43.6843 78.4283 41.504 74.0628 37.5945C69.6973 33.5346 67.5146 28.347 67.5146 22.0317ZM2.93542 22.0317C2.93542 16.017 5.0429 10.9798 9.25785 6.91989C13.4728 2.86001 18.7415 0.830078 25.0639 0.830078C31.0853 0.830078 36.2035 3.16075 40.4184 7.82209C44.6334 12.4834 46.7409 18.2725 46.7409 25.1893C46.7409 30.4521 45.5366 36.166 43.1281 42.331C40.7195 48.496 37.5583 54.7362 33.6444 61.0516C29.881 67.367 25.5908 73.6823 20.7737 79.9977C15.9566 86.1627 11.0643 91.9518 6.09663 97.3649L0 92.1773C6.77404 84.3583 12.4191 76.3889 16.9351 68.2691C21.4511 60.1494 24.1607 52.1048 25.0639 44.1354C19.0426 43.6843 13.8491 41.504 9.48366 37.5945C5.11816 33.5346 2.93542 28.347 2.93542 22.0317Z" fill="#0B65ED"/>
</svg>
