<svg width="475" height="221" viewBox="0 0 475 221" fill="none" xmlns="http://www.w3.org/2000/svg">
<path d="M0.9375 216L57.6333 135.803L2.11254 57.3693H49.1143L80.8404 104.371L111.979 57.3693H158.981L103.46 135.803L160.45 216H113.448L80.8404 167.236L47.9392 216H0.9375Z" fill="#0B65ED"/>
<path d="M220.811 216V47.9689L181.153 72.3511V28.2869L220.811 4.49234H261.643V216H220.811Z" fill="#0B65ED"/>
<path d="M395.922 220.406C380.255 220.406 366.546 217.126 354.795 210.566C343.045 204.005 333.889 194.849 327.329 183.099C320.768 171.348 317.488 157.64 317.488 141.972V78.52C317.488 62.8528 320.768 49.144 327.329 37.3935C333.889 25.6431 343.045 16.4876 354.795 9.9269C366.546 3.36625 380.255 0.0859375 395.922 0.0859375C411.589 0.0859375 425.298 3.36625 437.048 9.9269C448.799 16.4876 457.954 25.6431 464.515 37.3935C471.076 49.144 474.356 62.8528 474.356 78.52V141.972C474.356 157.64 471.076 171.348 464.515 183.099C457.954 194.849 448.799 204.005 437.048 210.566C425.298 217.126 411.589 220.406 395.922 220.406ZM395.922 182.511C402.972 182.511 409.337 180.847 415.016 177.517C420.696 174.188 425.2 169.684 428.529 164.004C431.858 158.325 433.523 151.96 433.523 144.91V75.2887C433.523 68.2384 431.858 61.8736 428.529 56.1942C425.2 50.5149 420.696 46.0105 415.016 42.6812C409.337 39.3519 402.972 37.6873 395.922 37.6873C388.871 37.6873 382.507 39.3519 376.827 42.6812C371.148 46.0105 366.644 50.5149 363.314 56.1942C359.985 61.8736 358.32 68.2384 358.32 75.2887V144.91C358.32 151.96 359.985 158.325 363.314 164.004C366.644 169.684 371.148 174.188 376.827 177.517C382.507 180.847 388.871 182.511 395.922 182.511Z" fill="#0B65ED"/>
</svg>
